<svg width="27" height="25" viewBox="0 0 27 25" fill="none" xmlns="http://www.w3.org/2000/svg">
<path d="M26.3762 13.1666C26.7244 12.7849 26.7244 12.2007 26.3762 11.819L16.4248 0.906766C15.8094 0.231968 14.6859 0.667332 14.6859 1.5806V7.08237H13.2565C9.71569 7.08237 6.38663 8.46129 3.88277 10.9651C1.37892 13.469 0 16.7981 0 20.3391V23.4209C0 24.334 1.1231 24.7694 1.73862 24.095L2.36151 23.4125C5.52042 19.9516 10.0045 17.9496 14.6859 17.904V23.4052C14.6859 24.3184 15.8094 24.7538 16.4248 24.079L26.3762 13.1666ZM1.58224 21.9324V20.3391C1.58224 17.2208 2.79657 14.2888 5.00153 12.0839C7.20648 9.87894 10.1382 8.6646 13.2565 8.6646H16.2679V3.083L24.8496 12.4928L16.2679 21.9028V16.3212H14.8484C9.85432 16.3212 5.05179 18.3595 1.58224 21.9324Z" fill="#314149"/>
</svg>
