<svg width="30" height="30" viewBox="0 0 30 30" fill="none" xmlns="http://www.w3.org/2000/svg">
<g clip-path="url(#clip0_383_7552)">
<path d="M15.0007 2.85718C12.599 2.857 10.2512 3.56903 8.25415 4.90324C6.25713 6.23744 4.70061 8.13389 3.78143 10.3527C2.86226 12.5716 2.62171 15.0132 3.09022 17.3688C3.55872 19.7243 4.71524 21.8881 6.4135 23.5863C8.11176 25.2846 10.2755 26.4411 12.6311 26.9096C14.9866 27.3781 17.4282 27.1376 19.6471 26.2184C21.8659 25.2992 23.7624 23.7427 25.0966 21.7457C26.4308 19.7486 27.1428 17.4008 27.1426 14.9991C27.139 11.78 25.8586 8.69377 23.5823 6.41751C21.3061 4.14124 18.2198 2.86083 15.0007 2.85718ZM15.0007 24.7127C12.8982 24.7192 10.8514 24.0377 9.17257 22.7719C9.08925 22.7093 9.01002 22.6426 8.92973 22.5777V22.2843C8.93082 21.3185 9.31494 20.3927 9.99782 19.7098C10.6807 19.0269 11.6066 18.6428 12.5723 18.6417H17.4291C18.3948 18.6428 19.3207 19.0269 20.0036 19.7098C20.6865 20.3927 21.0706 21.3185 21.0717 22.2843V22.5778C20.9908 22.6426 20.9117 22.7091 20.8288 22.7718C19.1501 24.0376 17.1032 24.7192 15.0007 24.7127ZM12.5723 12.5707C12.5723 12.0904 12.7147 11.6209 12.9816 11.2216C13.2484 10.8222 13.6277 10.511 14.0714 10.3272C14.5151 10.1434 15.0034 10.0953 15.4745 10.189C15.9455 10.2827 16.3782 10.514 16.7178 10.8536C17.0575 11.1932 17.2887 11.6259 17.3824 12.097C17.4761 12.568 17.428 13.0563 17.2442 13.5C17.0604 13.9438 16.7492 14.323 16.3498 14.5899C15.9505 14.8567 15.481 14.9991 15.0007 14.9991C14.3569 14.9984 13.7397 14.7423 13.2844 14.287C12.8292 13.8318 12.5731 13.2145 12.5723 12.5707ZM23.1596 20.2831C22.7836 19.2126 22.1159 18.2686 21.2318 17.5575C20.3476 16.8464 19.2823 16.3966 18.1561 16.2588C18.9109 15.6137 19.4499 14.7528 19.7004 13.7919C19.9509 12.8311 19.9009 11.8165 19.557 10.885C19.2132 9.95346 18.5921 9.14969 17.7774 8.58199C16.9628 8.01429 15.9937 7.70994 15.0007 7.70994C14.0077 7.70994 13.0386 8.01429 12.224 8.58199C11.4093 9.14969 10.7882 9.95346 10.4444 10.885C10.1006 11.8165 10.0505 12.8311 10.301 13.7919C10.5515 14.7528 11.0905 15.6137 11.8453 16.2588C10.719 16.3966 9.65369 16.8465 8.76956 17.5576C7.88542 18.2688 7.2177 19.213 6.84177 20.2836C5.89414 18.8168 5.35945 17.1217 5.29398 15.3766C5.22851 13.6316 5.63468 11.9012 6.46974 10.3675C7.3048 8.8338 8.53787 7.55361 10.0392 6.66163C11.5404 5.76966 13.2544 5.2989 15.0007 5.2989C16.747 5.2989 18.461 5.76966 19.9623 6.66163C21.4635 7.55361 22.6966 8.8338 23.5317 10.3675C24.3667 11.9012 24.7729 13.6316 24.7074 15.3766C24.642 17.1217 24.1073 18.8168 23.1596 20.2836V20.2831Z" fill="#314149" stroke="white"/>
<path d="M1.14286 5.71429C1.44596 5.71429 1.73665 5.59388 1.95098 5.37955C2.16531 5.16522 2.28571 4.87453 2.28571 4.57143V2.28571H4.57143C4.87453 2.28571 5.16522 2.16531 5.37955 1.95098C5.59388 1.73665 5.71429 1.44596 5.71429 1.14286C5.71429 0.839753 5.59388 0.549062 5.37955 0.334734C5.16522 0.120407 4.87453 0 4.57143 0H1.14286C0.839753 0 0.549062 0.120407 0.334734 0.334734C0.120407 0.549062 0 0.839753 0 1.14286V4.57143C0 4.87453 0.120407 5.16522 0.334734 5.37955C0.549062 5.59388 0.839753 5.71429 1.14286 5.71429Z" fill="#314149" stroke="white"/>
<path d="M28.8571 0H25.4285C25.1254 0 24.8347 0.120407 24.6204 0.334734C24.4061 0.549062 24.2856 0.839753 24.2856 1.14286C24.2856 1.44596 24.4061 1.73665 24.6204 1.95098C24.8347 2.16531 25.1254 2.28571 25.4285 2.28571H27.7142V4.57143C27.7142 4.87453 27.8346 5.16522 28.049 5.37955C28.2633 5.59388 28.554 5.71429 28.8571 5.71429C29.1602 5.71429 29.4509 5.59388 29.6652 5.37955C29.8795 5.16522 29.9999 4.87453 29.9999 4.57143V1.14286C29.9999 0.839753 29.8795 0.549062 29.6652 0.334734C29.4509 0.120407 29.1602 0 28.8571 0Z" fill="#314149" stroke="white"/>
<path d="M28.8571 24.2858C28.554 24.2858 28.2633 24.4062 28.049 24.6205C27.8346 24.8348 27.7142 25.1255 27.7142 25.4286V27.7143H25.4285C25.1254 27.7143 24.8347 27.8347 24.6204 28.0491C24.4061 28.2634 24.2856 28.5541 24.2856 28.8572C24.2856 29.1603 24.4061 29.451 24.6204 29.6653C24.8347 29.8796 25.1254 30.0001 25.4285 30.0001H28.8571C29.1602 30.0001 29.4509 29.8796 29.6652 29.6653C29.8795 29.451 29.9999 29.1603 29.9999 28.8572V25.4286C29.9999 25.1255 29.8795 24.8348 29.6652 24.6205C29.4509 24.4062 29.1602 24.2858 28.8571 24.2858Z" fill="#314149" stroke="white"/>
<path d="M1.14286 30.0001H4.57143C4.87453 30.0001 5.16522 29.8796 5.37955 29.6653C5.59388 29.451 5.71429 29.1603 5.71429 28.8572C5.71429 28.5541 5.59388 28.2634 5.37955 28.0491C5.16522 27.8347 4.87453 27.7143 4.57143 27.7143H2.28571V25.4286C2.28571 25.1255 2.16531 24.8348 1.95098 24.6205C1.73665 24.4062 1.44596 24.2858 1.14286 24.2858C0.839753 24.2858 0.549062 24.4062 0.334734 24.6205C0.120407 24.8348 0 25.1255 0 25.4286V28.8572C0 29.1603 0.120407 29.451 0.334734 29.6653C0.549062 29.8796 0.839753 30.0001 1.14286 30.0001Z" fill="#314149" stroke="white"/>
</g>
<defs>
<clipPath id="clip0_383_7552">
<rect width="30" height="30" fill="white"/>
</clipPath>
</defs>
</svg>
