<svg width="30" height="30" viewBox="0 0 30 30" fill="none" xmlns="http://www.w3.org/2000/svg">
<g clip-path="url(#clip0_383_7604)">
<path d="M17.1815 0C15.2788 0 13.731 1.54787 13.731 3.45053C13.731 5.35318 15.2789 6.90105 17.1815 6.90105C19.0841 6.90105 20.632 5.35318 20.632 3.45053C20.632 1.54787 19.0841 0 17.1815 0ZM17.1815 4.5617C16.5688 4.5617 16.0703 4.06324 16.0703 3.45053C16.0703 2.83781 16.5688 2.33935 17.1815 2.33935C17.7942 2.33935 18.2927 2.83781 18.2927 3.45053C18.2927 4.06324 17.7942 4.5617 17.1815 4.5617Z" fill="#314149" stroke="white" stroke-width="0.75"/>
<path d="M20.4513 25.8568C20.1645 25.278 19.4628 25.0413 18.884 25.328L18.0846 25.724L20.0924 12.1559C20.1009 12.0992 20.105 12.042 20.105 11.9847C20.105 10.9445 19.5964 9.97251 18.7445 9.38452C17.9022 8.80327 16.8289 8.67267 15.8733 9.03513C15.8385 9.04837 15.8043 9.06319 15.7709 9.07972L11.0491 11.4081C10.4697 11.6938 10.2316 12.3951 10.5173 12.9744C10.803 13.5538 11.5043 13.7919 12.0837 13.5062L12.8846 13.1113L10.8771 26.6728C10.8688 26.7295 10.8646 26.7867 10.8646 26.844C10.8646 27.8809 11.3751 28.8522 12.2303 29.4424C12.7638 29.8106 13.3878 30 14.0157 30C14.3878 30 14.7614 29.9334 15.1182 29.798C15.1537 29.7846 15.1885 29.7694 15.2226 29.7525L19.9225 27.4242C20.5013 27.1374 20.7381 26.4357 20.4513 25.8568ZM15.5327 26.9882L14.2461 27.6256C13.92 27.7296 13.6589 27.5861 13.559 27.5172C13.4587 27.4479 13.2334 27.2555 13.2065 26.9123L15.4354 11.8533L16.7447 11.2077C17.0536 11.1083 17.2959 11.2272 17.4155 11.3099C17.5144 11.3781 17.7365 11.5687 17.7629 11.9161L15.5327 26.9882Z" fill="#314149" stroke="white" stroke-width="0.75"/>
</g>
<defs>
<clipPath id="clip0_383_7604">
<rect width="30" height="30" fill="white"/>
</clipPath>
</defs>
</svg>
