<svg width="30" height="30" viewBox="0 0 30 30" fill="none" xmlns="http://www.w3.org/2000/svg">
<path d="M16.0021 17.3622V3.18171C16.0021 2.52907 15.473 2 14.8204 2C14.1677 2 13.6387 2.52907 13.6387 3.18171V17.3622C13.6387 18.0148 14.1677 18.5439 14.8204 18.5439C15.473 18.5439 16.0021 18.0148 16.0021 17.3622Z" fill="#EC374A" stroke="white" stroke-width="0.75"/>
<path d="M26.093 12.6346C25.0877 9.438 22.7821 6.84262 19.7829 5.45509C19.0989 5.13864 18.3654 5.67402 18.3654 6.4277C18.3654 6.88622 18.6493 7.29287 19.0617 7.49337C23.5628 9.68183 25.69 15.0027 23.8257 19.7383C21.8678 24.712 16.2487 27.1567 11.2751 25.1987C6.30154 23.2407 3.8568 17.6217 5.8147 12.6481C6.70525 10.3859 8.41051 8.55072 10.5795 7.49355C10.9917 7.29265 11.2751 6.88627 11.2751 6.42773C11.2751 5.67404 10.5408 5.13862 9.85644 5.45431C4.53783 7.90766 1.74378 13.9896 3.54748 19.7249C5.50539 25.9506 12.1396 29.4104 18.3654 27.4525C24.5911 25.4946 28.0509 18.8604 26.093 12.6346Z" fill="#EC374A" stroke="white" stroke-width="0.75"/>
</svg>
