<svg width="30" height="30" viewBox="0 0 30 30" fill="none" xmlns="http://www.w3.org/2000/svg">
<g clip-path="url(#clip0_383_7591)">
<path d="M26.6792 13.2688H25.3722V11.0918C25.3722 8.40262 24.285 5.87255 22.2843 3.9673C20.2944 2.07216 17.6616 1.01857 14.8483 1C9.03143 1 4.3098 5.52723 4.3098 11.0918V13.2688H2.64197C1.74635 13.2688 1 14.0269 1 14.923V21.4566C1.0094 22.356 1.74235 23.0797 2.64197 23.0779H6.82294C7.05778 23.0807 7.25148 22.8947 7.25853 22.6601V13.7195C7.2543 13.478 7.06389 13.2813 6.82294 13.2688H5.15229V11.0918C5.15229 5.99173 9.50322 1.84249 14.8527 1.84249C17.4479 1.85942 19.871 2.83073 21.705 4.57731C23.5367 6.32201 24.5297 8.63558 24.5297 11.0918V13.2688H22.8802C22.6477 13.2688 22.4836 13.4867 22.4836 13.7195V22.6601C22.4782 22.7687 22.5177 22.875 22.5924 22.954C22.6674 23.0327 22.7716 23.0776 22.8802 23.0779H24.1084V25.5988C24.1084 26.4283 23.4636 27.1098 22.6341 27.1098H19.0544C18.8113 25.851 17.6322 24.9977 16.3607 25.1604C15.089 25.323 14.1626 26.4455 14.2441 27.725C14.3257 29.0042 15.3873 30.0002 16.6691 30C17.8612 29.9932 18.875 29.1284 19.0694 27.9523H22.6341C23.9279 27.9523 24.9509 26.8931 24.9509 25.5988V23.0779H26.6792C27.5788 23.0797 28.3117 22.356 28.3209 21.4566V14.923C28.3209 14.0269 27.575 13.2688 26.6792 13.2688ZM6.41603 22.2354H2.64197C2.20732 22.2377 1.85143 21.891 1.84249 21.4566V14.923C1.84861 14.482 2.20098 14.1242 2.64197 14.1113H6.41603V22.2354ZM16.6691 29.1535C15.7925 29.1535 15.0817 28.4427 15.0817 27.5658C15.0817 26.6893 15.7925 25.9784 16.6694 25.9784C17.5459 25.9784 18.2568 26.6893 18.2568 27.5661C18.2559 28.4424 17.5455 29.1526 16.6691 29.1535ZM27.4784 21.4566C27.4697 21.891 27.1138 22.2377 26.6792 22.2354H23.3261V14.1113H26.6792C27.1199 14.1242 27.4725 14.482 27.4784 14.923V21.4566Z" fill="#314149" stroke="#314149" stroke-width="0.5"/>
</g>
<defs>
<clipPath id="clip0_383_7591">
<rect width="30" height="30" fill="white"/>
</clipPath>
</defs>
</svg>
